<svg width="137" height="44" viewBox="0 0 137 44" fill="none" xmlns="http://www.w3.org/2000/svg">
<g clip-path="url(#clip0_9439_117)">
<path fill-rule="evenodd" clip-rule="evenodd" d="M38.5134 7.51269C34.645 4.12003 29.5758 2.06343 24.0261 2.06343C11.8861 2.06343 2.04478 11.9048 2.04478 24.0448C2.04478 29.5944 4.10138 34.6636 7.49404 38.532C2.90026 34.5031 0 28.5903 0 22C0 9.86003 9.84137 0.0186539 21.9813 0.0186539C28.5717 0.0186539 34.4845 2.9189 38.5134 7.51269Z" fill="white"/>
<path d="M14.6795 26.5922V25.4041C15.7279 25.7768 16.8601 25.9632 18.0762 25.9632C19.7955 25.9632 20.6551 25.3342 20.6551 24.0761C20.6551 23.0045 20.0214 22.4687 18.7541 22.4687H17.4681C15.3761 22.4687 14.3301 21.5601 14.3301 19.743C14.3301 17.8327 15.6696 16.8775 18.3487 16.8775C19.5136 16.8775 20.5969 17.0173 21.5986 17.2968V18.4849C20.5969 18.1122 19.5136 17.9258 18.3487 17.9258C16.5316 17.9258 15.623 18.5316 15.623 19.743C15.623 20.8146 16.2381 21.3505 17.4681 21.3505H18.7541C20.8834 21.3505 21.9481 22.259 21.9481 24.0761C21.9481 26.0331 20.6574 27.0115 18.0762 27.0115C16.8601 27.0115 15.7279 26.8717 14.6795 26.5922ZM29.7084 16.9474V26.9416H28.4154V16.9474H29.7084ZM36.7392 16.9474L32.2384 21.6649L36.837 26.9416H35.041L30.9664 22.1332V21.3505L35.1037 16.9474H36.7392ZM41.767 16.9474H43.1997L46.079 22.1682L49.0003 16.9474H50.5029L46.687 23.4471V26.9416H45.394V23.4471L41.767 16.9474ZM56.4461 26.9416V16.9474H58.0887L61.7577 25.2852L65.3572 16.9474H66.9296V26.9416H65.7764V18.7435L62.226 26.9416H61.2056L57.5993 18.7435V26.9416H56.4461ZM74.2148 26.9416H72.8728L77.115 16.9474H78.548L82.8111 26.9416H81.3784L80.0854 23.7966H76.7797L77.1361 22.7482H79.6522L77.786 18.2194L74.2148 26.9416ZM88.7542 26.9416V16.9474H92.808C94.8487 16.9474 95.869 17.8396 95.869 19.6242C95.869 21.5671 94.4738 22.7529 91.6827 23.1816L91.4172 22.0913C93.4671 21.7884 94.4922 20.9847 94.4922 19.6801C94.4922 18.5712 93.8914 18.0167 92.689 18.0167H90.0472V26.9416H88.7542ZM102.169 26.9416V16.9474H106.222C108.263 16.9474 109.283 17.8396 109.283 19.6242C109.283 21.5671 107.888 22.7529 105.097 23.1816L104.832 22.0913C106.881 21.7884 107.907 20.9847 107.907 19.6801C107.907 18.5712 107.305 18.0167 106.103 18.0167H103.462V26.9416H102.169ZM122.118 16.9474V17.9957H116.876V21.3505H121.873V22.3988H116.876V25.8933H122.223V26.9416H115.583V16.9474H122.118ZM128.76 26.9416V16.9474H133.023C134.924 16.9474 135.875 17.7465 135.875 19.3446C135.875 20.6446 134.945 21.6067 133.086 22.231L136.517 26.9416H134.812L131.632 22.4477V21.602C133.543 21.2992 134.498 20.5653 134.498 19.4005C134.498 18.478 133.967 18.0167 132.904 18.0167H130.053V26.9416H128.76Z" fill="white"/>
</g>
<defs>
<clipPath id="clip0_9439_117">
<rect width="137" height="43.9627" fill="white" transform="translate(0 0.0186539)"/>
</clipPath>
</defs>
</svg>
